<svg width="72" height="72" viewBox="0 0 72 72" fill="none" xmlns="http://www.w3.org/2000/svg">
<g clip-path="url(#clip0_14_6)">
<rect width="72" height="72" fill="black"/>
<path d="M15.3755 48.961C16.233 48.961 17.4002 49.1836 18.6002 49.629V47.9345C17.4002 47.6673 16.3196 47.5337 15.1856 47.5337C13.4091 47.5337 12.0248 48.0059 11.0662 48.9505C10.1075 49.8951 9.62012 51.2438 9.62012 52.997C9.62012 54.7172 10.0918 56.058 11.0434 57.0189C11.995 57.9797 13.3058 58.4603 15.012 58.4603C16.4095 58.4603 17.7003 58.2353 18.6003 57.7853V56.1892C17.7003 56.7048 16.5455 56.9626 15.523 56.9626C14.3842 56.9626 13.5109 56.611 12.8711 55.9079C12.2312 55.2048 11.9113 54.2251 11.9113 52.9688C11.9113 51.6892 12.209 50.7013 12.8043 50.0052C13.3994 49.3091 14.2783 48.961 15.3755 48.961Z" fill="#D70022"/>
<path d="M50.7 47.7002V54.9026L46.0261 47.7002H44.1001V58.2002H45.9001V51.0916L50.6462 58.2002H52.5001V47.7002H50.7Z" fill="#D70022"/>
<path d="M41.3998 47.7002H39.2998V58.2002H41.3998V47.7002Z" fill="#D70022"/>
<path d="M63.6648 49.0103C62.711 48.0259 61.4292 47.5337 59.8225 47.5337C58.2048 47.5337 56.921 48.0259 55.9694 49.0103C55.0175 49.9946 54.5415 51.3235 54.5415 52.997C54.5415 54.6517 55.0153 55.9758 55.9621 56.9696C56.9086 57.9634 58.1726 58.4603 59.7517 58.4603C61.4067 58.4603 62.711 57.9705 63.6648 56.9907C64.6191 56.011 65.0954 54.6728 65.0954 52.9759C65.0954 51.3165 64.6191 49.9946 63.6648 49.0103ZM61.9835 55.9325C61.4424 56.6614 60.7079 57.0259 59.7792 57.0259C58.8985 57.0259 58.1881 56.6567 57.6493 55.9185C57.1106 55.1802 56.8404 54.204 56.8404 52.9899C56.8404 51.7665 57.1117 50.7892 57.6528 50.0579C58.1942 49.3267 58.9176 48.961 59.8225 48.961C60.7176 48.961 61.4365 49.3267 61.98 50.0579C62.5249 50.7892 62.7962 51.7595 62.7962 52.9688C62.7962 54.2156 62.5249 55.2035 61.9835 55.9325Z" fill="#D70022"/>
<path d="M36.9255 53.6368C36.5453 53.1633 35.85 52.6454 34.8469 52.0829L34.1016 51.6681C33.5438 51.3541 33.1645 51.0891 32.9629 50.8735C32.7613 50.658 32.6605 50.4071 32.6605 50.1212C32.6605 49.7743 32.8044 49.4943 33.0924 49.281C33.3804 49.0676 33.8309 48.961 34.3088 48.961C34.9278 48.961 35.7001 49.1603 36.9001 49.5587V47.8923C35.7001 47.6532 34.8569 47.5337 34.0278 47.5337C32.991 47.5337 32.125 47.7938 31.4952 48.3142C30.8637 48.8345 30.5327 49.5235 30.5327 50.3813C30.5327 51.0236 30.7164 51.5848 31.1006 52.0653C31.4843 52.5458 32.1391 53.0486 33.0728 53.5735L33.7665 53.9603C34.3282 54.2791 34.7098 54.5544 34.9115 54.7864C35.113 55.0185 35.2133 55.3032 35.2133 55.6407C35.2133 56.0672 35.0524 56.4047 34.7308 56.6532C34.4106 56.9017 34.0028 57.0259 33.4449 57.0259C32.648 57.0259 31.8002 56.7915 30.6002 56.3228V58.1087C31.5002 58.3431 32.6457 58.4603 33.4795 58.4603C34.7408 58.4603 35.7136 58.186 36.4315 57.6376C37.1479 57.0892 37.4984 56.3322 37.4984 55.3665C37.4983 54.6867 37.3049 54.1102 36.9255 53.6368Z" fill="#D70022"/>
<path d="M25.5936 47.7002H23.4274L19.3774 58.2002H20.953L22.0355 55.5002H26.3387L27.4223 58.2002H29.6436L25.5936 47.7002ZM22.5708 54.0002L24.1871 49.8518L25.8046 54.0002H22.5708Z" fill="#D70022"/>
<path d="M70.8321 37.7205L70.832 37.7204L42.4579 12.8769C42.571 12.4076 42.6407 11.9135 42.6407 11.3999C42.6407 7.81584 39.7306 4.8999 36.1454 4.8999C32.5605 4.8999 29.6478 7.81558 29.6478 11.3999C29.6478 11.9104 29.7111 12.404 29.8229 12.8763L1.42996 37.7203L1.4298 37.7205C1.27408 37.8568 1.02723 38.089 0.894184 38.389C0.0973859 39.1194 -0.5 40.1814 -0.5 41.3894V63.0105C-0.5 65.2927 1.51463 67.0999 3.74583 67.0999H68.554C70.8397 67.0999 72.4999 65.2384 72.4999 63.0105V41.3894C72.5 40.2316 72.0789 39.161 71.2681 38.4011C71.1932 38.179 71.0707 37.9295 70.8321 37.7205ZM69.0998 63.0105V63.0285C69.0964 63.2534 69.0286 63.4247 68.9398 63.5315C68.8565 63.6318 68.7363 63.6999 68.5541 63.6999H3.74583C3.54472 63.6999 3.32071 63.6154 3.14887 63.4697C2.97768 63.3246 2.89991 63.1571 2.89991 63.0105V41.3894C2.89991 41.2427 2.9777 41.0751 3.14886 40.93C3.32068 40.7844 3.54469 40.7 3.74583 40.7H68.554C68.7363 40.7 68.8564 40.7681 68.9397 40.8683C69.0308 40.9779 69.0998 41.1555 69.0998 41.3894V63.0105ZM36.15 8.29995C37.8591 8.29995 39.25 9.69089 39.25 11.3999C39.25 13.109 37.8591 14.4999 36.15 14.4999C34.441 14.4999 33.05 13.109 33.05 11.3999C33.05 9.69089 34.441 8.29995 36.15 8.29995ZM7.07469 37.2999L31.4954 15.9316C32.6759 17.1439 34.3256 17.8999 36.1499 17.8999C37.9739 17.8999 39.6239 17.1439 40.8044 15.9316L65.2253 37.2999H7.07469Z" fill="#D70022" stroke="#D70022"/>
</g>
<rect x="0.5" y="0.5" width="71" height="71" stroke="black"/>
<defs>
<clipPath id="clip0_14_6">
<rect width="72" height="72" fill="white"/>
</clipPath>
</defs>
</svg>
